<svg width="22" height="22" viewBox="0 0 22 22" fill="none" xmlns="http://www.w3.org/2000/svg">
<path d="M11 0.5C8.56573 0.516578 6.21282 1.37849 4.34381 2.93828C2.4748 4.49807 1.20583 6.65882 0.753998 9.05089C0.302163 11.443 0.695532 13.9177 1.86681 16.0518C3.0381 18.1858 4.9145 19.8466 7.17505 20.75C7.02312 19.7558 7.02312 18.7442 7.17505 17.75L8.41255 12.5C8.21671 12.0245 8.11974 11.5142 8.12755 11C8.12755 9.545 8.97505 8.45 10.025 8.45C10.2153 8.44714 10.4038 8.48543 10.5779 8.56224C10.7519 8.63906 10.9073 8.75258 11.0334 8.89504C11.1595 9.0375 11.2533 9.20553 11.3083 9.38761C11.3634 9.5697 11.3785 9.76154 11.3525 9.95C11.3525 10.85 10.7825 12.2 10.4825 13.445C10.418 13.6772 10.4103 13.9215 10.4602 14.1573C10.51 14.3931 10.616 14.6133 10.769 14.7995C10.9221 14.9857 11.1177 15.1322 11.3394 15.2267C11.5611 15.3212 11.8023 15.361 12.0425 15.3425C13.9025 15.3425 15.3425 13.37 15.3425 10.535C15.3612 9.95891 15.2597 9.38525 15.0443 8.85061C14.8289 8.31598 14.5045 7.8321 14.0916 7.42986C13.6788 7.02762 13.1867 6.71584 12.6466 6.51442C12.1066 6.31299 11.5305 6.22634 10.955 6.26C10.3407 6.23361 9.72743 6.33216 9.15229 6.54966C8.57715 6.76717 8.05213 7.09912 7.609 7.52542C7.16587 7.95172 6.81385 8.46351 6.57425 9.0298C6.33465 9.59609 6.21245 10.2051 6.21505 10.82C6.20671 11.6766 6.4692 12.5139 6.96505 13.2125C7.0011 13.2526 7.02679 13.3009 7.03986 13.3532C7.05294 13.4055 7.053 13.4602 7.04005 13.5125C6.95755 13.8425 6.77755 14.5625 6.74755 14.705C6.71755 14.8475 6.59005 14.9375 6.39505 14.8475C5.08255 14.2325 4.26505 12.32 4.26505 10.775C4.26505 7.4675 6.67255 4.4225 11.2025 4.4225C14.84 4.4225 17.675 7.0175 17.675 10.49C17.675 14.105 15.425 17.015 12.2225 17.015C11.7531 17.0313 11.2869 16.9301 10.8665 16.7206C10.4461 16.511 10.0846 16.1997 9.81505 15.815L9.16255 18.3125C8.84976 19.2831 8.41101 20.2085 7.85755 21.065C8.87738 21.3664 9.93668 21.513 11 21.5C13.7848 21.5 16.4555 20.3938 18.4247 18.4246C20.3938 16.4555 21.5 13.7848 21.5 11C21.5 8.21523 20.3938 5.54451 18.4247 3.57538C16.4555 1.60625 13.7848 0.5 11 0.5Z" fill="#2A254B"/>
</svg>
