<svg width="15" height="15" viewBox="0 0 15 15" fill="none" xmlns="http://www.w3.org/2000/svg">
<path d="M14.5 13.7929L10.724 10.0169C11.6313 8.92758 12.0838 7.53038 11.9872 6.11596C11.8907 4.70153 11.2525 3.37879 10.2055 2.42288C9.15856 1.46698 7.78336 0.951515 6.36601 0.983723C4.94866 1.01593 3.59829 1.59333 2.59581 2.59581C1.59334 3.59828 1.01594 4.94865 0.983731 6.366C0.951523 7.78335 1.46699 9.15855 2.42289 10.2055C3.37879 11.2525 4.70154 11.8907 6.11596 11.9872C7.53039 12.0838 8.92758 11.6313 10.0169 10.7239L13.793 14.5L14.5 13.7929ZM2 6.5C2 5.60998 2.26392 4.73995 2.75839 3.99993C3.25286 3.25991 3.95566 2.68313 4.77793 2.34254C5.6002 2.00194 6.505 1.91283 7.37791 2.08646C8.25082 2.2601 9.05265 2.68868 9.68198 3.31802C10.3113 3.94735 10.7399 4.74918 10.9135 5.62209C11.0872 6.495 10.9981 7.3998 10.6575 8.22207C10.3169 9.04434 9.74009 9.74714 9.00007 10.2416C8.26005 10.7361 7.39002 11 6.5 11C5.30694 10.9987 4.16311 10.5241 3.31948 9.68052C2.47586 8.83689 2.00133 7.69306 2 6.5Z" fill="#2A254B"/>
</svg>
