<svg width="20" height="20" viewBox="0 0 20 20" fill="none" xmlns="http://www.w3.org/2000/svg">
<path d="M18.9324 11.4101C19.008 10.9439 19.0456 10.4723 19.0449 10.0001C19.0449 7.60119 18.0919 5.30055 16.3957 3.60429C14.6994 1.90802 12.3988 0.955068 9.99989 0.955068C9.52762 0.954335 9.05607 0.991959 8.58989 1.06757C7.54445 0.441322 6.31975 0.182299 5.11027 0.331634C3.90079 0.480968 2.77587 1.0301 1.91415 1.89182C1.05242 2.75355 0.503292 3.87847 0.353957 5.08794C0.204623 6.29742 0.463645 7.52212 1.08989 8.56757C1.00552 9.04054 0.960364 9.51967 0.954892 10.0001C0.954892 12.399 1.90784 14.6996 3.60411 16.3959C5.30038 18.0921 7.60101 19.0451 9.99989 19.0451C10.4722 19.0458 10.9437 19.0082 11.4099 18.9326C12.4553 19.5588 13.68 19.8178 14.8895 19.6685C16.099 19.5192 17.2239 18.97 18.0856 18.1083C18.9474 17.2466 19.4965 16.1217 19.6458 14.9122C19.7952 13.7027 19.5361 12.478 18.9099 11.4326L18.9324 11.4101ZM14.2974 14.1101C13.874 14.6953 13.2907 15.1459 12.6174 15.4076C11.7867 15.7336 10.8996 15.8916 10.0074 15.8726C8.96891 15.916 7.93579 15.7022 6.99989 15.2501C6.45426 14.9568 5.98634 14.5377 5.63489 14.0276C5.31296 13.5918 5.12998 13.069 5.10989 12.5276C5.1091 12.3871 5.13734 12.248 5.19283 12.1189C5.24833 11.9898 5.32988 11.8736 5.43239 11.7776C5.65955 11.5842 5.95198 11.485 6.24989 11.5001C6.49885 11.4954 6.74117 11.5806 6.93239 11.7401C7.14171 11.9359 7.30335 12.177 7.40489 12.4451C7.53501 12.7583 7.70113 13.0553 7.89989 13.3301C8.09799 13.5838 8.3556 13.7847 8.64989 13.9151C9.04963 14.0866 9.48281 14.166 9.91739 14.1476C10.5364 14.1776 11.1495 14.0151 11.6724 13.6826C11.8731 13.565 12.04 13.3976 12.1569 13.1965C12.2739 12.9955 12.3369 12.7676 12.3399 12.5351C12.3464 12.3722 12.3183 12.2098 12.2576 12.0586C12.1968 11.9074 12.1047 11.7707 11.9874 11.6576C11.7203 11.4115 11.3992 11.2317 11.0499 11.1326C10.6599 11.0051 10.1424 10.8776 9.48989 10.7351C8.74051 10.5606 8.00964 10.3145 7.30739 10.0001C6.75481 9.77359 6.26756 9.41267 5.88989 8.95007C5.53169 8.47325 5.34652 7.88867 5.36489 7.29257C5.35883 6.68657 5.55403 6.0957 5.91989 5.61257C6.33778 5.09338 6.8943 4.7033 7.52489 4.48757C8.32225 4.22273 9.16013 4.10086 9.99989 4.12757C10.657 4.11595 11.312 4.20446 11.9424 4.39007C12.4371 4.53697 12.9019 4.7706 13.3149 5.08007C13.6399 5.3242 13.9107 5.63324 14.1099 5.98757C14.272 6.2738 14.3597 6.59615 14.3649 6.92507C14.3639 7.06528 14.3349 7.20388 14.2795 7.3327C14.2241 7.46151 14.1435 7.57792 14.0424 7.67507C13.9403 7.78566 13.8161 7.87353 13.6779 7.93297C13.5396 7.99241 13.3904 8.02209 13.2399 8.02007C12.9986 8.03884 12.7594 7.96359 12.5724 7.81007C12.3756 7.62044 12.2109 7.40006 12.0849 7.15757C11.8991 6.77532 11.63 6.43958 11.2974 6.17507C10.8609 5.90294 10.347 5.78172 9.83489 5.83007C9.3092 5.80791 8.78831 5.93813 8.33489 6.20507C8.17019 6.29302 8.0311 6.42216 7.9312 6.5799C7.8313 6.73764 7.774 6.91858 7.76489 7.10507C7.75895 7.30884 7.82538 7.50812 7.95239 7.66757C8.10197 7.84089 8.28583 7.98134 8.49239 8.08007C8.71236 8.19386 8.94361 8.28435 9.18239 8.35007C9.42239 8.41757 9.81239 8.51507 10.3599 8.64257C11.0499 8.79257 11.6649 8.95757 12.2274 9.13757C12.7305 9.29086 13.2101 9.51296 13.6524 9.79757C14.0382 10.0416 14.3557 10.3797 14.5749 10.7801C14.7978 11.2368 14.901 11.7426 14.8749 12.2501C14.8817 12.9152 14.6797 13.5657 14.2974 14.1101Z" fill="#2A254B"/>
</svg>
