<svg width="18" height="14" viewBox="0 0 18 14" fill="none" xmlns="http://www.w3.org/2000/svg">
<path d="M5.94 13.705C7.20685 13.7129 8.46268 13.4693 9.63465 12.9881C10.8066 12.507 11.8714 11.798 12.7672 10.9022C13.663 10.0063 14.3721 8.94157 14.8532 7.76961C15.3343 6.59764 15.578 5.34181 15.57 4.07496C15.57 3.92496 15.57 3.78246 15.57 3.63246C16.2267 3.15132 16.7951 2.56009 17.25 1.88496C16.6316 2.1554 15.9773 2.33477 15.3075 2.41746C16.0177 1.99429 16.5506 1.32821 16.8075 0.542458C16.1456 0.939538 15.4199 1.21868 14.6625 1.36746C14.1524 0.823983 13.4775 0.46375 12.7421 0.342497C12.0067 0.221245 11.2518 0.345732 10.5943 0.696698C9.93678 1.04766 9.41324 1.60554 9.1047 2.28402C8.79617 2.96249 8.71983 3.72373 8.8875 4.44996C7.54202 4.38392 6.22553 4.03522 5.02377 3.42659C3.822 2.81795 2.7619 1.96302 1.9125 0.917458C1.48419 1.66084 1.35437 2.5392 1.54932 3.3747C1.74427 4.2102 2.24942 4.9404 2.9625 5.41746C2.43646 5.39717 1.92259 5.25329 1.4625 4.99746V5.03496C1.45783 5.81183 1.71954 6.56685 2.20403 7.17416C2.68851 7.78147 3.3665 8.2044 4.125 8.37246C3.63573 8.50405 3.12322 8.52455 2.625 8.43246C2.84459 9.095 3.26376 9.67338 3.82503 10.0883C4.38631 10.5032 5.06219 10.7343 5.76 10.75C4.56691 11.7104 3.08407 12.239 1.5525 12.25C1.28396 12.2422 1.01606 12.2197 0.75 12.1825C2.30022 13.1701 4.1019 13.6909 5.94 13.6825" fill="#2A254B"/>
</svg>
