<svg width="14" height="14" viewBox="0 0 14 14" fill="none" xmlns="http://www.w3.org/2000/svg">
<path d="M7 3C6.50554 3 6.02219 3.14662 5.61107 3.42133C5.19995 3.69603 4.87952 4.08648 4.6903 4.54329C4.50108 5.00011 4.45157 5.50277 4.54803 5.98773C4.6445 6.47268 4.8826 6.91814 5.23223 7.26777C5.58186 7.6174 6.02732 7.8555 6.51227 7.95196C6.99722 8.04843 7.49989 7.99892 7.9567 7.8097C8.41352 7.62048 8.80397 7.30005 9.07867 6.88893C9.35337 6.4778 9.5 5.99445 9.5 5.5C9.5 4.83696 9.2366 4.20107 8.76776 3.73223C8.29892 3.26339 7.66304 3 7 3ZM7 7C6.70332 7 6.41331 6.91203 6.16664 6.7472C5.91997 6.58238 5.72771 6.34811 5.61418 6.07403C5.50064 5.79994 5.47094 5.49834 5.52882 5.20736C5.58669 4.91639 5.72956 4.64912 5.93933 4.43934C6.14911 4.22956 6.41639 4.0867 6.70736 4.02882C6.99833 3.97094 7.29993 4.00065 7.57402 4.11418C7.84811 4.22771 8.08238 4.41997 8.2472 4.66664C8.41202 4.91332 8.5 5.20333 8.5 5.5C8.49955 5.89769 8.34137 6.27896 8.06016 6.56016C7.77895 6.84137 7.39768 6.99955 7 7Z" fill="#2A254B"/>
<path d="M7 0C5.61553 0 4.26215 0.410543 3.111 1.17971C1.95986 1.94888 1.06265 3.04213 0.532839 4.32122C0.00302535 5.6003 -0.135598 7.00776 0.134499 8.36563C0.404595 9.7235 1.07128 10.9708 2.05025 11.9497C3.02922 12.9287 4.2765 13.5954 5.63436 13.8655C6.99223 14.1356 8.3997 13.997 9.67878 13.4672C10.9579 12.9373 12.0511 12.0401 12.8203 10.889C13.5895 9.73785 14 8.38447 14 7C13.9979 5.14413 13.2597 3.36486 11.9474 2.05256C10.6351 0.74026 8.85587 0.00209095 7 0ZM4 12.1882V11.5C4.00043 11.1023 4.15861 10.721 4.43982 10.4398C4.72103 10.1586 5.1023 10.0004 5.5 10H8.5C8.89769 10.0004 9.27896 10.1586 9.56017 10.4398C9.84138 10.721 9.99956 11.1023 10 11.5V12.1882C9.08958 12.7199 8.05425 13 7 13C5.94574 13 4.91041 12.7199 4 12.1882ZM10.9962 11.4629C10.9863 10.807 10.7191 10.1813 10.2521 9.72061C9.7852 9.25991 9.15595 9.00112 8.5 9H5.5C4.84405 9.00112 4.21479 9.25991 3.74786 9.72061C3.28092 10.1813 3.01369 10.807 3.00375 11.4629C2.09703 10.6533 1.45761 9.58734 1.17016 8.40623C0.882715 7.22513 0.960795 5.98457 1.39406 4.84883C1.82733 3.71309 2.59536 2.73573 3.59643 2.04618C4.59751 1.35663 5.78442 0.987413 7 0.987413C8.21558 0.987413 9.40248 1.35663 10.4036 2.04618C11.4046 2.73573 12.1727 3.71309 12.6059 4.84883C13.0392 5.98457 13.1173 7.22513 12.8298 8.40623C12.5424 9.58734 11.903 10.6533 10.9962 11.4629Z" fill="#2A254B"/>
</svg>
